<?xml version="1.0" standalone="no"?>
<!DOCTYPE svg PUBLIC "-//W3C//DTD SVG 20010904//EN"
 "http://www.w3.org/TR/2001/REC-SVG-20010904/DTD/svg10.dtd">
<svg version="1.0" xmlns="http://www.w3.org/2000/svg"
 width="197.000000pt" height="197.000000pt" viewBox="0 0 197.000000 197.000000"
 preserveAspectRatio="xMidYMid meet">
<metadata>
Created by potrace 1.11, written by Peter Selinger 2001-2013
</metadata>
<g transform="translate(0.000000,197.000000) scale(0.100000,-0.100000)"
fill="#000000" stroke="none">
<path d="M68 1950 c3 -8 8 -19 12 -25 4 -5 47 -84 95 -175 48 -91 102 -192
120 -225 50 -92 258 -481 300 -560 20 -38 64 -120 96 -181 l59 -112 0 -336 0
-336 225 0 225 0 1 23 c0 12 1 164 1 337 l0 314 48 86 c26 47 143 263 260 480
117 217 223 413 235 435 12 22 43 81 70 130 26 50 52 95 56 100 4 6 12 22 17
36 l10 25 -246 0 -245 1 -82 -171 c-45 -94 -96 -200 -113 -236 -16 -36 -62
-132 -102 -215 -40 -82 -85 -179 -102 -214 -16 -34 -31 -61 -33 -60 -2 2 -58
121 -125 264 -164 349 -179 382 -243 516 l-54 115 -246 0 c-217 0 -244 -2
-239 -16z"/>
<path d="M1364 319 c-10 -17 13 -36 27 -22 12 12 4 33 -11 33 -5 0 -12 -5 -16
-11z"/>
</g>
</svg>
